<?xml version="1.0" standalone="no"?>
<!DOCTYPE svg PUBLIC "-//W3C//DTD SVG 20010904//EN"
 "http://www.w3.org/TR/2001/REC-SVG-20010904/DTD/svg10.dtd">
<svg version="1.0" xmlns="http://www.w3.org/2000/svg"
 width="512.000000pt" height="512.000000pt" viewBox="0 0 512.000000 512.000000"
 preserveAspectRatio="xMidYMid meet">
<metadata>
Created by potrace 1.14, written by Peter Selinger 2001-2017
</metadata>
<g transform="translate(0.000000,512.000000) scale(0.100000,-0.100000)"
fill="#000000" stroke="none">
<path d="M2327 4999 c-9 -6 -124 -55 -254 -110 -131 -55 -251 -107 -268 -114
-16 -8 -149 -64 -295 -126 -564 -237 -786 -332 -825 -349 -22 -10 -69 -30
-105 -44 -36 -15 -78 -33 -95 -41 -16 -7 -91 -39 -165 -70 -74 -32 -153 -65
-175 -75 -22 -9 -54 -22 -71 -29 l-30 -12 -1 -388 0 -389 196 -82 c108 -46
214 -91 236 -101 22 -10 144 -61 270 -114 127 -53 245 -103 263 -111 17 -8 47
-20 65 -28 17 -8 140 -60 272 -116 132 -56 251 -107 265 -113 14 -6 27 -11 30
-12 3 -1 23 -9 45 -19 22 -9 137 -58 255 -107 118 -50 240 -102 270 -116 86
-39 130 -56 135 -51 5 4 6 194 5 594 l0 181 -102 43 c-57 24 -121 51 -143 60
-22 10 -150 64 -285 120 -574 240 -765 322 -773 329 -4 4 25 20 65 36 40 15
91 36 113 45 22 10 137 57 255 105 118 48 256 104 305 125 50 21 176 72 280
115 105 42 211 86 237 97 l48 20 2 392 3 391 38 -90 c21 -49 90 -214 153 -365
64 -151 121 -289 129 -305 11 -24 156 -366 245 -580 7 -16 21 -48 30 -70 10
-22 39 -92 65 -155 26 -63 55 -133 65 -155 10 -22 46 -107 81 -190 34 -82 78
-186 97 -230 18 -44 36 -88 39 -97 5 -15 27 -18 209 -20 112 -2 216 0 231 3
16 3 38 3 51 0 12 -3 83 -5 156 -3 l134 3 45 107 c25 59 73 175 107 257 34 83
65 153 69 157 4 4 6 -194 6 -440 l0 -447 375 0 375 0 0 1340 0 1340 -380 1
c-209 0 -387 -3 -395 -7 -9 -4 -21 -24 -29 -46 -7 -21 -19 -51 -27 -68 -7 -16
-29 -70 -50 -120 -20 -49 -44 -108 -54 -130 -10 -22 -50 -119 -90 -215 -39
-96 -77 -188 -85 -205 -30 -70 -208 -499 -217 -525 -4 -11 -9 -7 -17 13 -6 16
-67 166 -136 335 -69 169 -158 386 -197 482 -39 96 -97 239 -129 318 -33 78
-59 146 -59 151 0 5 -6 11 -12 13 -7 2 -195 4 -418 3 -223 0 -407 2 -410 6 -3
4 -13 3 -23 -2z"/>
<path d="M203 2062 l-23 -3 0 -790 0 -790 453 2 c481 1 535 5 682 51 221 69
410 239 484 438 47 126 64 320 41 450 -66 365 -342 594 -762 636 -71 7 -832
12 -875 6z m837 -426 c52 -10 130 -51 172 -91 20 -19 49 -61 65 -92 26 -53 28
-67 28 -168 0 -131 -14 -185 -63 -251 -80 -105 -167 -137 -385 -138 l-142 -1
-1 365 c-1 201 2 370 7 376 9 11 257 12 319 0z"/>
<path d="M1920 2062 c-7 -3 -10 -276 -10 -793 l0 -789 658 0 657 0 0 197 0
197 -30 6 c-17 3 -185 4 -375 3 -190 -1 -354 0 -366 2 -19 4 -20 12 -20 105
l-1 100 334 0 c310 0 333 1 334 18 3 96 3 362 -1 363 -3 1 -151 2 -330 4 -179
1 -328 3 -331 4 -3 0 -6 42 -6 91 l1 90 381 0 380 0 0 200 c0 126 -4 200 -10
201 -37 2 -1257 3 -1265 1z"/>
<path d="M3240 2059 c0 -4 9 -26 19 -50 10 -24 49 -116 86 -204 37 -88 75
-178 85 -200 9 -22 118 -278 241 -570 122 -291 227 -536 232 -543 8 -9 69 -12
270 -10 l260 3 88 210 c49 116 93 219 98 230 6 11 22 49 37 85 14 36 32 79 39
95 32 71 394 933 397 945 2 10 -47 12 -227 12 -313 0 -295 1 -301 -19 -9 -25
-153 -375 -241 -581 -40 -95 -73 -175 -73 -177 0 -3 -11 -29 -25 -59 -14 -30
-25 -60 -25 -65 0 -39 -31 27 -150 317 -73 180 -158 386 -187 457 l-53 130
-285 0 c-157 0 -285 -3 -285 -6z"/>
</g>
</svg>
